<svg width="34" height="25" viewBox="0 0 34 25" fill="none" xmlns="http://www.w3.org/2000/svg">
<path d="M8.75 24.5C6.475 24.5 4.53125 23.7125 2.91875 22.1375C1.30625 20.5625 0.5 18.6375 0.5 16.3625C0.5 14.4125 1.0875 12.675 2.2625 11.15C3.4375 9.625 4.975 8.65 6.875 8.225C7.5 5.925 8.75 4.0625 10.625 2.6375C12.5 1.2125 14.625 0.5 17 0.5C19.925 0.5 22.4063 1.51875 24.4438 3.55625C26.4813 5.59375 27.5 8.075 27.5 11C29.225 11.2 30.6563 11.9437 31.7938 13.2312C32.9313 14.5187 33.5 16.025 33.5 17.75C33.5 19.625 32.8438 21.2188 31.5312 22.5312C30.2188 23.8438 28.625 24.5 26.75 24.5H8.75ZM8.75 21.5H26.75C27.8 21.5 28.6875 21.1375 29.4125 20.4125C30.1375 19.6875 30.5 18.8 30.5 17.75C30.5 16.7 30.1375 15.8125 29.4125 15.0875C28.6875 14.3625 27.8 14 26.75 14H24.5V11C24.5 8.925 23.7687 7.15625 22.3062 5.69375C20.8437 4.23125 19.075 3.5 17 3.5C14.925 3.5 13.1563 4.23125 11.6938 5.69375C10.2313 7.15625 9.5 8.925 9.5 11H8.75C7.3 11 6.0625 11.5125 5.0375 12.5375C4.0125 13.5625 3.5 14.8 3.5 16.25C3.5 17.7 4.0125 18.9375 5.0375 19.9625C6.0625 20.9875 7.3 21.5 8.75 21.5Z" fill="#256AF4" stroke="black" stroke-linejoin="bevel"/>
</svg>
