<svg width="17" height="9" viewBox="0 0 17 9" fill="none" xmlns="http://www.w3.org/2000/svg">
<path d="M2.25 9C1.625 9 1.09375 8.78125 0.65625 8.34375C0.21875 7.90625 0 7.375 0 6.75V5.25H2.25V6.75H4.5V0H6.75V6.75C6.75 7.375 6.53125 7.90625 6.09375 8.34375C5.65625 8.78125 5.125 9 4.5 9H2.25ZM10.5 9C10.075 9 9.71875 8.85625 9.43125 8.56875C9.14375 8.28125 9 7.925 9 7.5V6H11.25V6.75H14.25V5.25H10.5C10.075 5.25 9.71875 5.10625 9.43125 4.81875C9.14375 4.53125 9 4.175 9 3.75V1.5C9 1.075 9.14375 0.71875 9.43125 0.43125C9.71875 0.14375 10.075 0 10.5 0H15C15.425 0 15.7812 0.14375 16.0688 0.43125C16.3563 0.71875 16.5 1.075 16.5 1.5V3H14.25V2.25H11.25V3.75H15C15.425 3.75 15.7812 3.89375 16.0688 4.18125C16.3563 4.46875 16.5 4.825 16.5 5.25V7.5C16.5 7.925 16.3563 8.28125 16.0688 8.56875C15.7812 8.85625 15.425 9 15 9H10.5Z" fill="#256AF4"/>
</svg>
